<?xml version="1.0" standalone="no"?>
<!DOCTYPE svg PUBLIC "-//W3C//DTD SVG 20010904//EN"
 "http://www.w3.org/TR/2001/REC-SVG-20010904/DTD/svg10.dtd">
<svg version="1.0" xmlns="http://www.w3.org/2000/svg"
 width="300.000000pt" height="300.000000pt" viewBox="0 0 300.000000 300.000000"
 preserveAspectRatio="xMidYMid meet">
<metadata>
Created by potrace 1.10, written by Peter Selinger 2001-2011
</metadata>
<g transform="translate(0.000000,300.000000) scale(0.100000,-0.100000)"
fill="#000000" stroke="none">
<path d="M1335 1993 l-130 -78 0 -170 0 -170 125 -72 c68 -40 132 -73 142 -73
16 0 18 9 18 69 l0 69 -32 6 c-111 22 -179 153 -134 259 18 43 76 93 126 108
l41 12 -3 55 c-2 31 -8 57 -13 59 -6 2 -69 -32 -140 -74z m125 7 c0 -14 -16
-27 -56 -46 -42 -20 -62 -37 -84 -73 -16 -25 -30 -54 -30 -65 0 -13 -5 -16
-17 -11 -15 5 -16 4 -5 -6 6 -7 12 -29 12 -49 0 -19 7 -48 15 -64 9 -16 14
-30 13 -31 -32 -20 -80 -46 -82 -44 -1 2 0 51 4 109 3 58 3 110 -2 116 -4 5
-4 23 0 39 7 23 29 42 103 87 101 62 129 70 129 38z m-113 -404 c21 -18 52
-39 68 -47 21 -10 31 -23 33 -42 2 -15 1 -27 -2 -27 -13 0 -186 105 -186 113
0 10 30 36 42 37 5 0 25 -15 45 -34z"/>
<path d="M1524 2057 c-3 -8 -4 -36 -2 -62 3 -45 5 -48 42 -60 108 -37 156
-157 105 -263 -22 -45 -73 -86 -121 -97 -27 -7 -28 -9 -28 -76 0 -50 4 -69 13
-69 12 0 144 73 228 126 44 27 50 49 17 58 -13 3 -37 15 -55 25 -31 20 -32 21
-18 48 19 36 19 76 0 139 -17 59 -61 105 -127 133 -40 17 -48 25 -48 46 0 14
6 28 14 31 23 9 235 -115 237 -139 1 -7 2 -69 3 -139 1 -70 5 -131 9 -135 4
-3 7 59 7 139 0 167 10 148 -120 225 -133 79 -149 86 -156 70z m204 -443 c12
-8 22 -19 22 -23 0 -9 -114 -81 -163 -102 -24 -11 -30 -10 -38 2 -16 26 -9 37
44 67 28 16 61 39 71 51 23 25 34 26 64 5z"/>
<path d="M1470 1845 l0 -54 -57 -3 c-54 -3 -58 -5 -58 -28 0 -23 4 -25 58 -28
l57 -3 0 -54 c0 -54 0 -55 30 -55 30 0 30 1 30 55 l0 55 55 0 c54 0 55 0 55
30 0 30 -1 30 -55 30 l-55 0 0 55 c0 54 0 55 -30 55 -30 0 -30 -1 -30 -55z
m49 -69 c14 -17 -9 -39 -33 -30 -12 5 -13 10 -5 25 12 22 22 24 38 5z"/>
<path d="M690 1216 c0 -95 3 -116 15 -116 11 0 15 17 17 76 l3 77 39 -57 c21
-31 42 -59 46 -61 4 -2 27 23 51 56 l44 61 3 -76 c2 -59 6 -76 17 -76 12 0 15
21 15 117 0 68 -4 113 -9 108 -5 -6 -33 -42 -63 -82 l-55 -71 -53 74 c-30 42
-57 77 -62 80 -4 3 -8 -47 -8 -110z"/>
<path d="M2140 1322 c0 -5 18 -31 39 -58 l39 -49 -44 -55 c-35 -44 -41 -56
-27 -59 9 -2 25 8 35 22 10 14 27 36 37 48 l18 22 34 -46 c19 -25 42 -46 52
-47 25 0 21 10 -28 65 l-44 50 46 52 c38 45 41 53 24 53 -12 0 -31 -16 -48
-40 -15 -22 -31 -40 -34 -40 -4 0 -19 16 -33 35 -27 35 -66 63 -66 47z"/>
<path d="M1060 1210 l0 -110 80 0 c64 0 80 3 80 15 0 12 -14 15 -65 15 l-65 0
0 35 0 35 61 0 c44 0 59 3 56 13 -3 8 -23 12 -61 11 l-56 -1 0 33 0 34 65 0
c51 0 65 3 65 15 0 12 -16 15 -80 15 l-80 0 0 -110z"/>
<path d="M1340 1211 l0 -111 50 0 c133 0 204 100 131 182 -27 30 -34 33 -105
36 l-76 4 0 -111z m160 54 c20 -18 26 -58 14 -90 -9 -24 -58 -45 -104 -45
l-40 0 0 78 c0 43 2 81 5 84 11 10 106 -10 125 -27z"/>
<path d="M1660 1210 l0 -110 70 0 c56 0 70 3 70 15 0 12 -13 15 -55 15 l-55 0
0 95 c0 78 -3 95 -15 95 -12 0 -15 -19 -15 -110z"/>
<path d="M1890 1210 l0 -110 80 0 c64 0 80 3 80 15 0 12 -14 15 -65 15 l-65 0
0 35 0 35 55 0 c42 0 55 3 55 15 0 12 -10 14 -55 9 l-55 -7 0 37 0 36 65 0
c51 0 65 3 65 15 0 12 -16 15 -80 15 l-80 0 0 -110z"/>
<path d="M760 995 c0 -30 3 -35 23 -34 16 1 18 2 5 6 -21 5 -24 23 -5 23 8 0
7 4 -3 10 -13 8 -12 10 3 10 9 0 17 5 17 10 0 6 -9 10 -20 10 -16 0 -20 -7
-20 -35z"/>
<path d="M817 1023 c-13 -13 -7 -63 7 -63 27 0 46 12 46 29 0 30 -35 52 -53
34z m41 -30 c-5 -25 -28 -28 -28 -4 0 12 6 21 16 21 9 0 14 -7 12 -17z"/>
<path d="M919 1014 c-9 -11 -10 -20 -2 -32 11 -19 53 -29 53 -13 0 6 -7 8 -16
4 -16 -6 -37 15 -28 29 3 4 14 8 25 8 11 0 17 5 14 10 -9 15 -31 12 -46 -6z"/>
<path d="M1130 1020 c0 -5 4 -10 9 -10 5 0 12 -12 14 -27 l4 -28 2 28 c0 15 6
27 11 27 6 0 10 5 10 10 0 6 -11 10 -25 10 -14 0 -25 -4 -25 -10z"/>
<path d="M1190 995 c0 -30 3 -35 23 -34 16 1 18 2 5 6 -10 2 -18 9 -18 14 0 5
8 9 18 10 14 0 14 2 -3 9 -17 7 -17 9 -2 9 24 1 22 21 -3 21 -16 0 -20 -7 -20
-35z"/>
<path d="M1246 1022 c-3 -5 -1 -22 4 -38 4 -16 9 -23 9 -15 1 11 4 11 16 1 21
-18 19 4 -2 26 -17 17 -17 18 0 11 9 -3 17 -2 17 2 0 5 -7 12 -16 15 -20 8
-22 8 -28 -2z"/>
<path d="M1387 1023 c-11 -10 -8 -63 3 -63 6 0 10 16 10 35 0 36 -2 40 -13 28z"/>
<path d="M1417 1023 c-11 -10 -8 -63 3 -63 6 0 10 16 10 35 0 36 -2 40 -13 28z"/>
<path d="M1480 1008 c-1 -21 -2 -22 -14 -5 -19 25 -26 21 -26 -13 0 -16 5 -30
11 -30 6 0 8 9 4 23 l-6 22 20 -24 21 -23 0 36 c0 20 -2 36 -5 36 -3 0 -5 -10
-5 -22z"/>
<path d="M1522 1021 c-21 -13 -11 -55 15 -59 30 -4 49 31 27 52 -18 18 -24 19
-42 7z m36 -28 c-2 -10 -10 -18 -18 -18 -8 0 -16 8 -18 18 -2 12 3 17 18 17
15 0 20 -5 18 -17z"/>
<path d="M1592 998 l-2 -36 44 0 c48 0 70 15 60 41 -14 37 -64 25 -64 -14 0
-33 -28 -21 -33 14 l-4 32 -1 -37z m88 -9 c0 -25 -33 -22 -38 4 -2 12 3 17 17
17 15 0 21 -6 21 -21z"/>
<path d="M1722 1021 c-21 -13 -11 -55 14 -59 12 -2 24 4 27 12 4 10 1 16 -9
16 -8 0 -12 -4 -9 -10 3 -5 -1 -10 -9 -10 -9 0 -16 9 -16 20 0 14 7 20 21 20
11 0 17 5 14 10 -7 12 -16 12 -33 1z"/>
<path d="M1770 1022 c0 -6 5 -14 10 -17 6 -3 10 -15 10 -26 0 -31 14 -22 26
16 9 29 9 33 -2 24 -11 -9 -18 -8 -29 1 -9 8 -15 9 -15 2z"/>
<path d="M1877 1023 c-9 -8 -9 -63 -1 -63 3 0 14 10 24 23 13 16 15 26 8 35
-12 13 -21 15 -31 5z"/>
<path d="M1932 998 c-2 -36 0 -38 28 -38 17 0 30 5 30 10 0 14 27 12 34 -2 3
-7 3 -2 0 12 -10 40 -22 45 -35 17 -18 -39 -47 -35 -52 6 -4 31 -4 31 -5 -5z"/>
<path d="M2047 998 c8 -43 13 -48 13 -15 0 15 5 27 10 27 6 0 10 5 10 10 0 6
-9 10 -20 10 -17 0 -19 -5 -13 -32z"/>
<path d="M2097 1023 c-11 -10 -8 -63 3 -63 6 0 10 7 10 15 0 8 6 15 13 15 8 0
7 4 -3 10 -13 9 -13 11 0 20 13 8 13 10 -1 10 -9 0 -19 -3 -22 -7z"/>
<path d="M2149 1014 c-17 -21 0 -49 32 -49 27 0 37 28 19 50 -16 19 -34 19
-51 -1z m51 -19 c0 -21 -30 -31 -40 -14 -11 17 -3 29 21 29 10 0 19 -7 19 -15z"/>
<path d="M2227 1023 c-4 -3 -7 -20 -7 -37 0 -23 3 -27 9 -17 7 11 13 12 23 3
11 -8 13 -6 13 12 -2 37 -21 57 -38 39z"/>
<path d="M681 988 c0 -18 3 -28 5 -21 3 7 12 9 20 6 20 -7 17 4 -6 27 -20 20
-20 20 -19 -12z"/>
<path d="M992 995 c-16 -34 -15 -40 3 -25 12 10 18 10 32 -1 15 -12 16 -12 10
4 -4 10 -7 21 -7 23 0 3 -4 2 -10 -1 -6 -3 -7 1 -4 9 10 27 -12 18 -24 -9z"/>
<path d="M1050 990 c0 -25 4 -30 23 -29 12 0 16 3 10 6 -7 2 -13 16 -13 29 0
13 -4 24 -10 24 -5 0 -10 -13 -10 -30z"/>
<path d="M1301 988 c0 -26 2 -29 8 -13 7 18 8 18 18 1 10 -18 10 -17 18 0 7
18 8 18 15 -1 7 -17 9 -14 9 13 1 37 -14 43 -25 10 l-7 -23 -10 23 c-15 32
-27 27 -26 -10z"/>
</g>
</svg>
